<svg width="64" height="64" viewBox="0 0 64 64" fill="none" xmlns="http://www.w3.org/2000/svg">
<rect width="64" height="64" rx="32" fill="#E65B12"/>
<path fill-rule="evenodd" clip-rule="evenodd" d="M36.8541 30.6984L38.9818 34.0711C37.5633 35.4911 36.8541 35.9526 36.8541 35.9526C35.4179 37.0709 33.6804 37.6212 31.6414 37.6212C29.0172 37.6212 26.6946 36.7159 24.6733 34.9053C22.652 33.0948 21.6414 30.5209 21.6414 27.1838C21.6414 27.1838 21.3222 27.45 23.4144 12.6459H28.9463L27.1733 26.3317C27.1733 28.1778 27.652 29.6334 28.6272 30.6984C29.6024 31.7635 30.8967 32.296 32.5456 32.296C34.2477 32.296 35.6839 31.728 36.8541 30.6097V30.6984ZM44.6201 25.3732V12.6636H39.0882V24.8051C39.0882 25.0004 39.0882 25.1956 39.0704 25.3732H44.6201ZM37.2442 44.3133C38.3435 43.195 38.9641 41.7572 39.1414 39.9998L44.3719 41.7927C43.9109 44.3665 42.7407 46.4789 40.8967 48.0942C38.379 50.2953 35.4357 51.3958 32.0669 51.3958C29.1946 51.3958 26.5882 50.5971 24.2478 48.9995C21.9073 47.3309 20.3648 44.9701 19.6201 41.9169L24.8683 40.0886C25.2584 41.9702 26.1449 43.479 27.5279 44.5973C28.9109 45.7156 30.5066 46.2836 32.3151 46.2836C34.301 46.2836 35.9499 45.6268 37.2442 44.3133Z" fill="#151718"/>
</svg>
