<?xml version="1.0" standalone="no"?>
<!DOCTYPE svg PUBLIC "-//W3C//DTD SVG 20010904//EN"
 "http://www.w3.org/TR/2001/REC-SVG-20010904/DTD/svg10.dtd">
<svg version="1.0" xmlns="http://www.w3.org/2000/svg"
 width="2048.000000pt" height="2048.000000pt" viewBox="0 0 2048.000000 2048.000000"
 preserveAspectRatio="xMidYMid meet">
<metadata>
Created by potrace 1.14, written by Peter Selinger 2001-2017
</metadata>
<g transform="translate(0.000000,2048.000000) scale(0.100000,-0.100000)"
fill="#000000" stroke="none">
<path d="M7447 16393 c-3 -27 -45 -325 -92 -663 -243 -1741 -416 -3119 -460
-3661 -24 -302 1 -755 61 -1079 161 -874 584 -1510 1334 -2006 572 -378 1186
-550 1895 -531 718 19 1242 228 1816 724 120 104 422 389 427 403 2 6 -145
245 -326 532 -181 288 -334 533 -341 545 -11 22 -14 21 -118 -64 -183 -148
-344 -242 -543 -316 -407 -152 -924 -166 -1321 -37 -235 77 -425 195 -605 374
-325 325 -492 753 -510 1301 l-6 170 281 2162 c155 1189 281 2169 281 2177 0
14 -91 16 -884 16 l-883 0 -6 -47z"/>
<path d="M12470 14400 l0 -2030 885 0 885 0 0 2030 0 2030 -885 0 -885 0 0
-2030z"/>
<path d="M12487 7673 c-4 -3 -7 -21 -7 -39 0 -45 -46 -293 -72 -384 -59 -214
-165 -459 -263 -611 -348 -538 -905 -878 -1557 -948 -123 -14 -445 -14 -563
-1 -480 53 -922 245 -1301 564 -378 318 -650 769 -779 1293 l-27 111 -42 -14
c-22 -9 -396 -139 -831 -290 -434 -152 -793 -279 -797 -283 -15 -14 96 -379
184 -601 299 -759 810 -1374 1479 -1785 578 -355 1177 -554 1889 -627 162 -17
686 -16 850 0 807 83 1487 343 2113 810 683 508 1101 1109 1317 1892 43 155
82 342 73 351 -8 7 -1639 569 -1653 569 -4 0 -10 -3 -13 -7z"/>
</g>
</svg>
